<svg width="434" height="420" fill="none" xmlns="http://www.w3.org/2000/svg"><path d="M428.397 230.804a60.301 60.301 0 00-2.923-.431 81.542 81.542 0 00-2.141-.18 37.413 37.413 0 00-1.79-.078 96.578 96.578 0 00-1.474-.017l.06-.913c1.865-.064 3.337-.22 4.417-.468 1.106-.246 1.924-.751 2.452-1.514.529-.763.848-1.978.958-3.646l.141-2.144-22.594-1.484c-1.059-.069-1.859-.029-2.401.122-.543.177-.927.55-1.15 1.12-.224.571-.399 1.41-.525 2.518l-.794-.052c.098-.685.182-1.557.252-2.615a133.091 133.091 0 00.433-6.592 31.52 31.52 0 00.085-2.507l.794.052c-.02 1.116.043 1.971.19 2.565.147.595.479 1.002.997 1.222.515.247 1.302.405 2.361.474l22.594 1.484.141-2.144c.108-1.641-.05-2.888-.472-3.74-.425-.825-1.169-1.432-2.234-1.821-1.038-.388-2.477-.735-4.318-1.042l.06-.913c.42.081.908.139 1.464.176.554.063 1.149.115 1.784.157.503.033 1.22.053 2.15.061.955.037 1.938.035 2.951-.005-.099 1.11-.205 2.313-.317 3.608a203.007 203.007 0 00-.3 3.968l-.237 3.614-.235 3.573a195.078 195.078 0 00-.221 3.974 778.596 778.596 0 00-.158 3.618zm-3.223 21.063c-.548 2.46-1.583 4.485-3.106 6.076-1.528 1.617-3.454 2.696-5.776 3.239-2.302.575-4.942.531-7.92-.132-2.9-.645-5.32-1.741-7.259-3.287-1.945-1.52-3.318-3.347-4.12-5.483-.802-2.135-.935-4.407-.399-6.815.547-2.46 1.585-4.499 3.114-6.115 1.523-1.591 3.448-2.671 5.776-3.24 2.322-.543 4.96-.486 7.912.171 2.9.646 5.319 1.742 7.258 3.287 1.939 1.546 3.313 3.374 4.12 5.483.803 2.136.936 4.408.4 6.816zm-.665-.311c.375-1.683.118-3.276-.771-4.778-.889-1.503-2.278-2.831-4.168-3.986-1.896-1.128-4.19-1.992-6.884-2.592-2.744-.611-5.223-.768-7.436-.473-2.193.327-3.99 1.015-5.392 2.062-1.381 1.078-2.248 2.407-2.6 3.987-.374 1.683-.117 3.276.771 4.778.889 1.502 2.281 2.818 4.177 3.946 1.916 1.161 4.208 2.038 6.875 2.631 2.771.617 5.253.762 7.445.435 2.187-.302 3.969-.979 5.344-2.032 1.402-1.046 2.282-2.373 2.639-3.978zm-15.84 47.356l-.735-.304c.32-.844.486-1.521.497-2.034.026-.477-.151-.881-.532-1.211-.355-.319-.987-.667-1.894-1.043l-18.235-7.552c-.882-.366-1.574-.566-2.077-.602-.502-.036-.912.124-1.232.48-.33.38-.692.977-1.086 1.79l-.735-.305c.262-.494.566-1.158.911-1.991a101.29 101.29 0 002.162-5.221c.355-.858.625-1.578.81-2.162l.735.304c-.296.854-.457 1.519-.483 1.997-.035.502.137.918.517 1.248.381.329 1.012.677 1.894 1.043l18.236 7.552c1.348.559 2.282.73 2.801.515.545-.206 1.076-.933 1.594-2.183l2.482-5.993c.517-1.25.656-2.14.417-2.67-.216-.52-.998-1.059-2.346-1.617l-18.235-7.553c-.882-.365-1.574-.566-2.077-.602-.502-.035-.912.125-1.232.48-.33.381-.692.977-1.086 1.79l-.735-.304c.282-.544.601-1.244.956-2.102a98.25 98.25 0 002.163-5.221 24.37 24.37 0 00.764-2.052l.735.304c-.296.854-.457 1.52-.483 1.997-.035.502.137.918.517 1.248.381.33 1.012.677 1.894 1.043l18.236 7.553c.906.375 1.599.576 2.076.601.502.036.918-.136 1.248-.517.344-.345.701-.93 1.071-1.753l.735.305c-.238.504-.541 1.168-.911 1.991-.37.824-.752 1.713-1.148 2.669a265.679 265.679 0 00-1.745 4.317c-.54 1.442-.988 2.591-1.343 3.449-.355.858-.847 1.975-1.474 3.352a262.87 262.87 0 00-1.788 4.213 99.537 99.537 0 00-1.075 2.699 127.1 127.1 0 00-.764 2.052zm-21.987 22.84l-14-9.346c-1.059-.707-1.938-.943-2.637-.708-.699.235-1.432.926-2.198 2.074l-.695-.464c.317-.427.774-1.063 1.37-1.909a60.2 60.2 0 001.812-2.57 75.675 75.675 0 001.9-2.99c.597-.941 1.053-1.673 1.37-2.195l.695.464c-.736 1.103-1.134 2.081-1.194 2.935-.037.868.485 1.663 1.566 2.385l8.009 5.347c1.059.707 1.916 1.119 2.571 1.237.655.119 1.251-.058 1.788-.528.523-.449 1.116-1.169 1.778-2.162l.729.486c-1.017 1.618-1.757 3.037-2.222 4.259a9.51 9.51 0 00-.642 3.685zm-12.099 16.175c-1.211 1.443-2.612 2.432-4.203 2.966-1.588.572-3.246.67-4.974.294-1.728-.376-3.404-1.246-5.03-2.61-1.626-1.365-2.816-2.918-3.571-4.659-.735-1.725-.992-3.482-.772-5.271.224-1.752.983-3.4 2.279-4.945 1.177-1.402 2.559-2.389 4.148-2.961 1.608-.555 3.285-.655 5.029-.299 1.748.393 3.435 1.272 5.061 2.636 1.605 1.347 2.784 2.873 3.536 4.577.734 1.725.991 3.482.771 5.271-.22 1.79-.978 3.457-2.274 5.001zm-.318-.735c1.091-1.3 1.304-2.957.638-4.97-.683-1.993-2.264-4.03-4.743-6.11-1.829-1.535-3.481-2.558-4.957-3.069-1.455-.494-2.736-.599-3.841-.314-1.122.305-2.032.875-2.731 1.708-1.109 1.321-1.322 2.978-.639 4.971.703 2.009 2.294 4.055 4.774 6.135 1.829 1.535 3.471 2.549 4.926 3.043 1.476.511 2.756.616 3.841.314a5.157 5.157 0 002.732-1.708zm-19.711 21.545c-1.403 1.258-2.93 2.039-4.581 2.343-1.653.342-3.308.205-4.965-.412-1.657-.616-3.194-1.714-4.611-3.295-1.417-1.58-2.376-3.286-2.877-5.116-.483-1.812-.49-3.587-.019-5.327.468-1.703 1.453-3.228 2.955-4.573 1.363-1.222 2.871-2.004 4.524-2.346 1.67-.322 3.344-.184 5.021.415 1.675.636 3.221 1.744 4.638 3.324 1.399 1.561 2.35 3.238 2.853 5.031.484 1.811.49 3.587.019 5.327-.47 1.741-1.456 3.284-2.957 4.629zm-.212-.772c1.264-1.133 1.709-2.743 1.335-4.83-.395-2.07-1.672-4.309-3.833-6.719-1.594-1.778-3.085-3.024-4.474-3.739-1.371-.694-2.623-.979-3.757-.853-1.154.144-2.136.579-2.946 1.305-1.284 1.151-1.729 2.761-1.334 4.83.412 2.089 1.698 4.339 3.858 6.749 1.594 1.778 3.077 3.014 4.448 3.709 1.389.714 2.641.998 3.758.853a5.155 5.155 0 002.945-1.305zm-41.281 29.458l-.428-.718c.934-.556 1.505-1.128 1.711-1.714.184-.573-.009-1.338-.579-2.295l-6.68-11.213c-.57-.958-1.151-1.492-1.742-1.603-.614-.097-1.388.132-2.323.689l-.427-.718c.401-.208.984-.525 1.75-.95a47.07 47.07 0 002.502-1.398 62.326 62.326 0 002.66-1.677 126.62 126.62 0 002.045-1.311l.427.718c-1.025.611-1.728 1.246-2.108 1.904-.389.695-.291 1.533.293 2.513l6.68 11.213c.57.957 1.128 1.505 1.673 1.643.546.138 1.229-.037 2.049-.526l.308-.183c.57-.339.844-.734.823-1.185-.022-.45-.272-1.181-.751-2.193a130.858 130.858 0 01-2.941-6.492c-.89-2.064-1.489-4.054-1.797-5.971a11.478 11.478 0 01-.01-3.282c.131-1.128.709-1.998 1.735-2.609.41-.244.845-.395 1.305-.453a2.3 2.3 0 011.276.12c.418.184.762.503 1.034.959.339.57.433 1.116.281 1.639-.151.522-.501.947-1.048 1.273-.478.285-.959.386-1.441.302-.504-.07-.92-.378-1.246-.925a1.988 1.988 0 01-.283-1.175c.043-.395.237-.82.585-1.274a.437.437 0 00-.192.068l-.171.101c-.569.34-.939.807-1.11 1.403a6.23 6.23 0 00-.231 1.944c.016.701.071 1.285.165 1.754.206 1.175.536 2.429.991 3.764a49.807 49.807 0 001.646 4.161 90.757 90.757 0 002.067 4.327c.502.998 1.094 1.525 1.777 1.582.659.07 1.456-.173 2.391-.73l.427.718c-.196.086-.501.221-.916.407-.423.221-.92.502-1.49.841a1479.268 1479.268 0 01-2.906 1.731l-1.743 1.039-1.983 1.181a91.82 91.82 0 00-2.339 1.44l-1.716 1.161zm-22.279 10.214l-.321-.728c.44-.252.773-.646 1.001-1.181.228-.535.309-1.339.242-2.411l-.928-18.29.619-.273 13.809 13.179c.879.743 1.591 1.111 2.138 1.102.533.026.946-.026 1.237-.154l.337.765c-.566.162-1.151.348-1.755.556-.594.232-1.23.498-1.91.798-.752.331-1.531.703-2.335 1.116-.828.423-1.596.819-2.302 1.188l-.337-.764a9.253 9.253 0 001.574-.868c.429-.276.608-.66.537-1.15-.061-.466-.522-1.118-1.384-1.956l-9.373-9.133.186-.169.631 12.681c.074 1.417.4 2.288.978 2.613.578.325 1.532.253 2.861-.217l.321.728c-.642.254-1.175.46-1.598.618-.448.168-.951.375-1.509.621-.558.246-1.051.478-1.477.694-.451.228-.865.44-1.242.635zm-.006-22.61l-.158-3.714c-.063-1.393.085-2.472.443-3.239a3.21 3.21 0 011.063-1.338 6.056 6.056 0 011.36-.86 3.419 3.419 0 011.387-.307c.439.009.842.136 1.211.379.357.22.638.56.841 1.021.257.583.295 1.131.116 1.645-.19.49-.589.868-1.196 1.136-.509.224-1.011.271-1.503.14-.493-.13-.862-.475-1.108-1.033-.182-.413-.235-.796-.158-1.148.077-.353.216-.661.419-.924a.318.318 0 00-.125.011l-.109.049c-.656.288-1.137.776-1.443 1.462-.318.661-.451 1.575-.401 2.742l.181 3.964-.82.014zm-24.464 30.324l-.24-.8c1.042-.312 1.735-.728 2.078-1.246.318-.511.317-1.3-.003-2.367l-3.747-12.503c-.32-1.067-.753-1.727-1.299-1.978-.572-.244-1.379-.21-2.42.102l-.24-.801a75.903 75.903 0 001.928-.495c.854-.2 1.802-.456 2.844-.769a70.278 70.278 0 003.141-1.024 134.46 134.46 0 002.455-.819l.24.801c-1.271.381-2.201.881-2.791 1.501-.582.645-.686 1.59-.313 2.835l3.632 12.122c.32 1.067.728 1.734 1.223 2.001.496.267 1.201.264 2.116-.01l.24.8-1.826.423c-.821.218-1.651.453-2.489.704-.839.251-1.699.523-2.581.815a952.1 952.1 0 00-1.948.708zm11.016-3.301l-.24-.8c.915-.275 1.506-.659 1.773-1.155.267-.495.241-1.277-.079-2.344l-.891-2.973c-.267-.89-.55-1.649-.849-2.28-.325-.622-.77-1.043-1.334-1.262-.564-.218-1.354-.175-2.371.129a9.11 9.11 0 00-2.234 1.002c-.668.449-1.19.924-1.567 1.425l-.24-.801c.402-.508 1.083-1.099 2.044-1.775a10.392 10.392 0 013.08-1.505c.89-.266 1.715-.375 2.478-.327.744.082 1.384.278 1.921.588.635.363 1.163.925 1.585 1.685.421.76.811 1.737 1.169 2.931l.64 2.135c.319 1.067.765 1.723 1.337 1.967.546.252 1.34.222 2.382-.091l.24.801-2.017.48c-.897.241-1.764.487-2.603.738-.839.251-1.648.508-2.428.769l-1.796.663zm-48.45 9.296l-.109-.829c1.078-.142 1.828-.441 2.25-.898.395-.454.52-1.233.374-2.337l-1.705-12.941c-.145-1.104-.468-1.824-.967-2.16-.525-.332-1.327-.427-2.405-.285l-.11-.829a72.593 72.593 0 002.062-.191c.928-.069 1.825-.16 2.693-.275a47.344 47.344 0 002.791-.448c.887-.17 1.765-.312 2.633-.427a47.209 47.209 0 012.693-.274 45.41 45.41 0 005.326-.702 42.898 42.898 0 015.208-.686 50.875 50.875 0 002.89-.301 47.093 47.093 0 002.673-.432 78.673 78.673 0 002.041-.349l.109.828c-1.078.142-1.815.44-2.21.894-.422.456-.56 1.237-.414 2.342l1.705 12.94c.145 1.105.481 1.823 1.006 2.155.499.336 1.288.433 2.367.291l.109.828-2.067.152c-.951.099-1.834.202-2.649.309-.842.111-1.629.228-2.362.351l-1.681.342-.109-.828c.815-.108 1.368-.381 1.658-.821.264-.436.323-1.206.177-2.311l-1.705-12.94c-.145-1.105-.454-1.827-.927-2.166-.473-.339-1.236-.439-2.288-.301l-1.735.229c-.947.125-1.592.41-1.935.857-.342.446-.441 1.222-.295 2.327l1.705 12.94c.145 1.105.415 1.832.809 2.181.368.353.959.476 1.774.369l.11.828-1.712.105a67.524 67.524 0 00-4.577.603l-1.681.342-.109-.828c.815-.108 1.368-.381 1.658-.821.264-.436.323-1.206.177-2.311l-1.705-12.94c-.145-1.105-.441-1.829-.888-2.171-.446-.343-1.143-.452-2.09-.327l-1.973.26c-.946.125-1.591.41-1.934.857-.342.446-.441 1.222-.295 2.327l1.705 12.94c.145 1.105.415 1.832.809 2.181.368.353.959.476 1.774.368l.11.829-1.712.105c-.767.074-1.557.165-2.373.273-.841.11-1.721.24-2.638.387l-2.036.389zm-30.913-.756l.032-.835c1.087.042 1.877-.126 2.369-.505.466-.381.721-1.128.764-2.241l.503-13.042c.043-1.114-.153-1.878-.588-2.293-.462-.416-1.236-.645-2.323-.687l.032-.835c.45.044 1.138.097 2.065.159.926.089 1.826.15 2.701.184a40.71 40.71 0 002.587.02c.823.006 1.447.003 1.872-.007l-.032.835c-.954-.037-1.638.136-2.051.518-.413.383-.641 1.13-.684 2.244l-.503 13.042c-.043 1.114.126 1.877.508 2.29.383.413 1.051.638 2.005.675l-.032.835a1035.5 1035.5 0 01-1.864-.192 81.203 81.203 0 00-2.583-.139 92.882 92.882 0 00-2.706-.065l-2.072.039zm13.361.516l.032-.835c.954.037 1.638-.136 2.051-.518.413-.382.641-1.13.684-2.243l.503-13.043c.043-1.113-.126-1.876-.509-2.289-.382-.413-1.05-.638-2.004-.675l.032-.835c.423.043 1.058.094 1.905.153.82.085 1.667.144 2.542.178.875.034 1.777.042 2.707.025a77.06 77.06 0 002.071 0l-.032.835c-1.087-.042-1.864.127-2.33.507-.492.38-.76 1.126-.803 2.239l-.503 13.043c-.043 1.113.166 1.878.628 2.294.435.415 1.196.644 2.283.685l-.032.836-2.063-.2a96.924 96.924 0 00-2.703-.144 77.727 77.727 0 00-2.546-.058l-1.913.045zm-7.05-3.06l-.62-.461 11.519-14.688.618.501-11.517 14.648zm-20.397.56l.144-.823c.497.087.936.043 1.316-.133.381-.176.478-.496.289-.96l-7.798-17.078c-.33-.731-.64-1.27-.929-1.617-.294-.321-.68-.577-1.159-.768l.144-.824c.257.072.658.169 1.202.291.513.144 1.031.262 1.554.353.81.142 1.69.269 2.64.381.919.134 1.59.224 2.013.271l-.144.824c-.523-.092-.975-.05-1.355.126-.386.202-.469.524-.25.966l7.798 17.079c.39.849.722 1.419.994 1.709.268.316.633.542 1.094.676l-.144.823c-.257-.072-.655-.182-1.195-.33a33.676 33.676 0 00-1.561-.313 91.317 91.317 0 00-2.633-.421c-.924-.107-1.597-.185-2.02-.232zm.684-10.141l-.061-.576-.107-.544 3.994-3.664c.835-.77 1.331-1.451 1.488-2.043.132-.596-.037-1.097-.504-1.502-.473-.379-1.159-.687-2.06-.926l.137-.784c.439.104.934.204 1.482.3a34.06 34.06 0 001.601.32 32.727 32.727 0 004.364.683l-.137.784c-.505-.035-1.054.098-1.645.399-.622.322-1.383.903-2.284 1.741l-6.268 5.812zm-11.424 8.263l.137-.784c.506.034 1.1-.131 1.784-.496.652-.344 1.368-.892 2.146-1.645l5.598-5.444a221.33 221.33 0 00.135 1.074l-3.805 3.738c-1.077 1.077-1.611 1.9-1.603 2.467-.022.588.65 1.056 2.017 1.403l-.137.784a85.751 85.751 0 01-1.672-.374 30.063 30.063 0 00-1.6-.32 31.946 31.946 0 00-3-.403zm-25.362-6.881l8.669-22.843c.405-1.067.363-1.891-.125-2.474-.504-.617-1.314-1.137-2.43-1.56l.296-.782c.537.232 1.279.556 2.227.973.958.392 1.983.795 3.074 1.209.769.292 1.543.571 2.321.838.763.233 1.348.412 1.754.538l-.297.782c-.893-.339-1.586-.418-2.081-.237-.494.181-.911.718-1.25 1.611l-7.116 18.751c-.423 1.116-.535 2.01-.336 2.682.189.696.83 1.251 1.921 1.665l-.296.782a26.285 26.285 0 00-2.264-.987 19.1 19.1 0 00-2.089-.665 12.531 12.531 0 00-1.978-.283zm-5.995-2.147c-1.96-.744-3.296-2.159-4.008-4.245-.746-2.071-.55-4.607.589-7.608a16.616 16.616 0 012.87-4.87c1.21-1.47 2.643-2.515 4.297-3.136 1.645-.596 3.484-.508 5.518.264 1.166.442 2.079 1.101 2.74 1.976.637.866.958 1.74.963 2.621l-.569.38a5.14 5.14 0 00-.825-2.313c-.491-.726-1.232-1.277-2.224-1.653-1.389-.527-2.633-.503-3.731.074-1.099.576-2.07 1.527-2.913 2.852-.878 1.341-1.651 2.892-2.319 4.653-.753 1.985-1.209 3.67-1.366 5.058-.158 1.387-.032 2.513.378 3.378.409.865 1.085 1.476 2.028 1.834 1.215.461 2.512.371 3.89-.269 1.368-.616 2.575-1.889 3.62-3.819l.249.69c-1.073 2.005-2.439 3.36-4.097 4.064-1.682.695-3.379.718-5.09.069zm-22.02-10.163c-2.06-1.097-3.328-2.584-3.802-4.459-.51-1.865-.06-4.12 1.349-6.766l12.399 6.602-.321.687-9.062-4.826c-.657 1.122-1.125 2.226-1.402 3.311-.289 1.108-.333 2.092-.129 2.952.18.847.668 1.482 1.464 1.906 1.077.574 2.324.547 3.741-.082 1.393-.64 2.795-2.088 4.206-4.342l-.031-.197c.234-.326.475-.694.723-1.103.247-.409.484-.824.708-1.245.848-1.593 1.32-3.1 1.416-4.521.096-1.422-.104-2.656-.6-3.701-.531-1.034-1.241-1.788-2.131-2.262a6.483 6.483 0 00-3.327-.78c-1.164.042-2.4.556-3.707 1.543l-.553-.655c.67-.636 1.49-1.161 2.462-1.575.972-.414 2.027-.618 3.167-.613 1.126.029 2.275.355 3.446.979 1.686.898 2.932 2.057 3.738 3.478.783 1.409 1.14 2.967 1.073 4.674-.104 1.718-.629 3.467-1.577 5.247-1.097 2.06-2.366 3.654-3.808 4.78-1.453 1.149-2.989 1.804-4.607 1.964-1.631.184-3.242-.148-4.835-.996zm-20.537-12.583a9.553 9.553 0 01-1.85-1.662 7.182 7.182 0 01-1.228-2.006c-.277-.674-.396-1.32-.357-1.937a3.065 3.065 0 01.555-1.647c.406-.59.886-.936 1.44-1.038.538-.08 1.059.053 1.561.399.48.331.809.767.984 1.307.154.525.051 1.049-.311 1.573-.346.503-.755.817-1.228.942a2.34 2.34 0 01-1.39-.088c-.052.544.115 1.143.503 1.796a4.903 4.903 0 001.498 1.613c.546.376 1.183.621 1.91.735.726.114 1.53.024 2.41-.272.865-.274 1.801-.837 2.808-1.69.991-.831 2.021-2.022 3.09-3.573 1.324-1.922 2.159-3.602 2.505-5.039.346-1.437.342-2.648-.011-3.632a5.055 5.055 0 00-1.862-2.346c-.852-.587-1.888-.931-3.108-1.03-1.22-.1-2.543.277-3.969 1.131l-.465-.658c.7-.549 1.55-1.01 2.549-1.385.984-.353 2.039-.48 3.163-.382 1.124.098 2.276.553 3.456 1.366 1.354.933 2.337 2.126 2.948 3.577.61 1.452.799 3.048.567 4.789-.27 1.747-1.022 3.516-2.256 5.307-1.234 1.792-2.635 3.146-4.202 4.064-1.603.925-3.247 1.371-4.932 1.338-1.7-.012-3.292-.529-4.778-1.552zM74.47 354.156a52.282 52.282 0 001.938-1.847 67.743 67.743 0 001.315-1.44c.315-.359.612-.717.889-1.073.26-.337.476-.624.648-.861l.689.604c-1.108 1.464-1.8 2.674-2.075 3.632-.275.958-.221 1.782.162 2.471.366.71.958 1.423 1.776 2.14l1.167 1.023 10.259-11.698c.857-.977 1.155-1.88.894-2.709-.299-.826-.937-1.668-1.914-2.525l.551-.628a143.07 143.07 0 001.862 1.739c.763.739 1.613 1.52 2.55 2.342a70.484 70.484 0 002.656 2.223c.835.698 1.491 1.237 1.967 1.62l-.55.628c-.998-.875-1.916-1.397-2.754-1.568-.856-.151-1.712.263-2.57 1.24l-10.259 11.698 1.466 1.285c.818.718 1.582 1.194 2.293 1.429.691.218 1.474.11 2.348-.323.854-.45 1.934-1.32 3.24-2.609l.689.604a6.11 6.11 0 00-.768.755c-.318.321-.634.662-.949 1.021a33.73 33.73 0 00-1.225 1.518 32.55 32.55 0 00-1.609 2.136l-2.872-2.519a112.223 112.223 0 01-2.128-1.919 117.808 117.808 0 00-4.577-4.015 57.32 57.32 0 01-2.237-1.855l-2.872-2.519zm-11.586-11.479c-1.124-1.273-1.855-2.662-2.194-4.168-.34-1.505-.176-3.083.49-4.734.648-1.67 1.927-3.348 3.835-5.034 1.909-1.687 3.732-2.748 5.47-3.186 1.7-.44 3.275-.399 4.728.123 1.452.522 2.74 1.42 3.865 2.692 1.106 1.253 1.838 2.642 2.195 4.167.339 1.506.194 3.085-.434 4.738-.666 1.65-1.954 3.319-3.862 5.005-1.909 1.686-3.723 2.758-5.443 3.215-1.737.438-3.332.396-4.785-.127-1.47-.542-2.758-1.439-3.865-2.691zm.597-.527c1.001 1.133 2.413 1.549 4.236 1.248 1.805-.32 4.04-1.657 6.704-4.011 2.664-2.354 4.266-4.407 4.807-6.159.503-1.754.254-3.198-.747-4.331-1.001-1.133-2.394-1.548-4.18-1.245-1.823.3-4.066 1.628-6.73 3.981-2.664 2.354-4.258 4.417-4.78 6.189-.542 1.752-.311 3.194.69 4.328zm-14.82-17.482l20.271-13.641c.946-.637 1.389-1.334 1.326-2.091-.054-.795-.415-1.687-1.082-2.678l.694-.466c.303.499.722 1.192 1.256 2.08.555.873 1.159 1.794 1.81 2.763.46.682.93 1.357 1.411 2.024l1.121 1.452-.693.467c-.533-.792-1.054-1.257-1.562-1.395-.509-.138-1.159.06-1.951.593l-16.64 11.197c-.99.667-1.598 1.332-1.823 1.995-.247.678-.045 1.501.607 2.469l-.694.467a26.507 26.507 0 00-1.278-2.114c-.43-.638-.87-1.221-1.321-1.749a12.423 12.423 0 00-1.452-1.373zm-3.654-5.216c-1.17-1.738-1.443-3.665-.82-5.779.588-2.122 2.213-4.079 4.876-5.871a16.631 16.631 0 015.155-2.318c1.837-.501 3.61-.527 5.32-.078 1.686.464 3.137 1.598 4.352 3.403.696 1.034 1.06 2.099 1.095 3.195.02 1.075-.223 1.973-.728 2.697l-.684-.02a5.13 5.13 0 00.663-2.364c.018-.876-.269-1.754-.861-2.634-.83-1.233-1.86-1.931-3.089-2.095-1.23-.164-2.571.052-4.025.646-1.491.588-3.018 1.408-4.58 2.459-1.762 1.185-3.107 2.298-4.037 3.34-.93 1.041-1.477 2.033-1.643 2.976-.165.942.034 1.832.597 2.668.726 1.079 1.836 1.754 3.33 2.028 1.473.288 3.194-.055 5.161-1.027l-.195.707c-2.034 1.017-3.93 1.334-5.691.952-1.775-.405-3.174-1.366-4.196-2.885zm8.826-26.72c.777 1.539.965 2.856.565 3.949-.435 1.081-1.292 1.944-2.571 2.589-.995.502-1.932.677-2.81.526a6.28 6.28 0 01-2.549-1.077 16.007 16.007 0 01-2.266-1.843c-.738-.697-1.44-1.353-2.107-1.968-.666-.615-1.297-1.069-1.891-1.364-.606-.318-1.182-.34-1.727-.065l-2.202 1.111c-.995.502-1.675 1.038-2.041 1.609-.378.547-.525 1.111-.44 1.692.062.593.248 1.197.559 1.813.298.592.704 1.19 1.216 1.793.5.58 1.112.94 1.837 1.08-.133-.498-.093-1.009.119-1.531.212-.523.614-.934 1.206-1.232.592-.299 1.161-.349 1.708-.149.523.212.933.614 1.232 1.206.346.687.39 1.304.13 1.85-.294.535-.714.94-1.259 1.215-.615.311-1.19.407-1.725.291a6.44 6.44 0 01-1.657-.635c-.654-.354-1.326-.891-2.016-1.613-.727-.733-1.365-1.644-1.914-2.734-.49-.971-.79-1.86-.9-2.666-.133-.795-.1-1.524.1-2.189a4.481 4.481 0 011.487-2.266c.71-.595 1.633-1.18 2.77-1.753l9.878-4.982c.568-.286.953-.584 1.153-.894.177-.297.164-.647-.039-1.049-.167-.332-.382-.58-.643-.746a4.422 4.422 0 00-.91-.477l.407-.695c.63.306 1.189.618 1.677.937.463.331.886.875 1.269 1.633.62 1.232.713 2.21.277 2.935-.437.725-1.07 1.297-1.898 1.715 1.637.125 2.914.566 3.83 1.322a8.053 8.053 0 012.145 2.662zm-2.21-.847c-.358-.71-.912-1.308-1.66-1.792-.774-.471-1.795-.759-3.065-.861l-6.964 3.512c.7.093 1.396.44 2.086 1.043.678.579 1.41 1.176 2.195 1.79a6.716 6.716 0 002.514 1.272c.902.258 1.934.095 3.095-.491 1.09-.549 1.77-1.234 2.04-2.053.245-.808.166-1.614-.24-2.42zm-31.835-27.171l.787-.279c.363 1.025.812 1.697 1.346 2.014.526.292 1.314.253 2.364-.119l12.305-4.355c1.05-.372 1.687-.837 1.912-1.394.216-.583.142-1.388-.22-2.413l.787-.279c.126.434.33 1.093.615 1.977.26.893.536 1.753.828 2.578.292.825.605 1.629.938 2.412.3.766.533 1.345.7 1.736l-.788.279c-.319-.9-.732-1.472-1.24-1.714s-1.287-.178-2.337.194l-12.305 4.355c-1.05.372-1.697.812-1.939 1.32s-.204 1.212.115 2.112l-.788.279-.512-1.803a83.555 83.555 0 00-.825-2.452 94.612 94.612 0 00-.94-2.537l-.803-1.911zm4.261 12.041l.788-.278c.319.9.732 1.471 1.24 1.714.508.242 1.287.177 2.337-.194l12.305-4.355c1.05-.372 1.697-.812 1.939-1.32s.204-1.212-.115-2.112l.788-.279c.117.409.304 1.018.563 1.827.224.793.482 1.602.774 2.427.292.826.618 1.667.978 2.525.335.866.59 1.508.765 1.924l-.787.279c-.363-1.026-.807-1.684-1.333-1.977-.534-.317-1.327-.29-2.377.082l-12.305 4.355c-1.05.371-1.683.849-1.899 1.432-.224.558-.155 1.349.208 2.375l-.788.278-.578-1.99a94.653 94.653 0 00-.865-2.564 79.98 79.98 0 00-.888-2.388l-.75-1.761zm6.536-10.038l.75-.265 3.745 10.578-.75.266-3.745-10.579zM15.52 249.382c-.35-1.661-.3-3.23.148-4.707.448-1.477 1.368-2.769 2.762-3.876 1.388-1.133 3.328-1.962 5.82-2.486 2.492-.525 4.602-.549 6.329-.073 1.696.457 3.046 1.27 4.052 2.441 1.006 1.171 1.683 2.587 2.033 4.248.345 1.636.296 3.205-.147 4.708-.448 1.477-1.353 2.779-2.715 3.907-1.394 1.106-3.337 1.922-5.829 2.447-2.492.525-4.599.562-6.32.111-1.727-.477-3.094-1.3-4.1-2.471-1.01-1.197-1.688-2.613-2.033-4.249zm.78-.164c.31 1.48 1.334 2.539 3.067 3.177 1.729.612 4.332.551 7.81-.181 3.48-.733 5.886-1.728 7.22-2.985 1.304-1.277 1.8-2.656 1.489-4.136-.312-1.479-1.32-2.528-3.022-3.145-1.733-.638-4.34-.591-7.818.142-3.479.732-5.883 1.74-7.212 3.023-1.335 1.257-1.846 2.626-1.535 4.105zm-4.092-26.442c-.225-2.909.07-4.954.883-6.135.785-1.204 1.891-1.862 3.32-1.973 1.375-.106 2.635.529 3.779 1.904 1.142 1.348 1.825 3.477 2.05 6.387l-.128.409-.131.369c-.15-1.585-.414-2.775-.795-3.571-.41-.819-.956-1.349-1.64-1.589-.685-.266-1.53-.361-2.536-.283-1.243.096-2.24.453-2.99 1.069-.777.619-1.093 1.868-.948 3.746.082 1.058.352 1.795.81 2.212.429.392 1.186.547 2.27.463l13.014-1.006c1.11-.086 1.848-.356 2.212-.81.362-.48.5-1.289.411-2.426-.114-1.481-.427-2.601-.938-3.36-.513-.785-1.151-1.295-1.914-1.528a6.091 6.091 0 00-2.457-.289c-1.693.131-2.807.696-3.341 1.695-.537.973-.75 2.186-.637 3.641l.466 6.031-.317.024-.357.028-.439-5.674.052-.363c-.245-3.174.017-5.456.788-6.846.744-1.388 1.896-2.142 3.457-2.263a5.135 5.135 0 012.964.649c.915.488 1.688 1.36 2.317 2.615.603 1.257.99 2.983 1.159 5.179.063.82.102 1.668.117 2.545a46.237 46.237 0 00.417 5.396c.098.924.177 1.609.239 2.057l-.834.064c-.083-1.084-.341-1.836-.773-2.255-.433-.445-1.205-.625-2.316-.539l-13.014 1.006c-1.11.086-1.846.382-2.206.889-.362.48-.501 1.262-.417 2.347l-.833.064-.04-2.072c-.046-.928-.1-1.802-.164-2.622a47.457 47.457 0 00-.293-2.771 41.1 41.1 0 01-.267-2.414zM4 191.91c.09-.55.201-1.272.332-2.164.13-.893.246-1.775.347-2.644a152.3 152.3 0 00.373-3.562c.106-1.136.186-1.942.24-2.416.371-3.189 1.373-5.489 3.006-6.902 1.633-1.413 3.596-1.986 5.888-1.72.949.11 1.932.385 2.95.823.99.436 1.888 1.101 2.692 1.996.78.865 1.37 2.002 1.767 3.41.398 1.408.477 3.14.238 5.195l-.44 3.795-.791-.092.395-3.399c.217-1.871.026-3.335-.572-4.393-.595-1.084-1.453-1.865-2.572-2.342-1.117-.504-2.347-.833-3.691-.989-2.503-.291-4.433-.008-5.787.85-1.352.831-2.167 2.445-2.446 4.843-.14 1.213-.008 2.029.397 2.45.405.421 1.292.711 2.663.87l19.605 2.277c.95.111 1.671.101 2.167-.028.499-.156.861-.515 1.087-1.076.225-.561.428-1.392.61-2.493l.79.092a35.42 35.42 0 00-.382 2.599 128.65 128.65 0 00-.411 3.198 99.087 99.087 0 00-.296 2.89 24.05 24.05 0 00-.174 2.183l-.79-.092c.051-.902.024-1.586-.082-2.053a1.434 1.434 0 00-.839-1.058c-.456-.214-1.158-.375-2.107-.486l-19.605-2.277c-.975-.113-1.696-.117-2.162-.01a1.434 1.434 0 00-1.06.838c-.236.427-.419 1.086-.55 1.979L4 191.91zm13.06-35.921c.418-1.646 1.155-3.032 2.209-4.16 1.053-1.128 2.45-1.881 4.189-2.259 1.745-.404 3.852-.292 6.32.337 2.468.629 4.372 1.538 5.711 2.728 1.32 1.158 2.173 2.484 2.56 3.978.385 1.495.368 3.065-.05 4.71-.413 1.62-1.15 3.006-2.21 4.159-1.054 1.128-2.441 1.897-4.16 2.308-1.74.378-3.843.253-6.311-.376s-4.375-1.525-5.721-2.689c-1.34-1.19-2.202-2.532-2.588-4.027-.38-1.52-.363-3.09.05-4.709zm.77.196c-.373 1.465.078 2.867 1.352 4.204 1.281 1.312 3.644 2.407 7.089 3.285 3.445.877 6.043 1.047 7.796.507 1.733-.571 2.787-1.589 3.16-3.055.373-1.465-.068-2.85-1.323-4.156-1.275-1.337-3.634-2.445-7.079-3.322-3.445-.878-6.047-1.034-7.806-.47-1.752.539-2.815 1.542-3.189 3.007zm6.947-24.516a9.531 9.531 0 011.182-2.19 7.187 7.187 0 011.661-1.664c.59-.427 1.19-.694 1.8-.801a3.06 3.06 0 011.731.153c.669.257 1.118.642 1.347 1.156.204.505.196 1.042-.022 1.612a2.49 2.49 0 01-1.04 1.263c-.473.273-1.008.295-1.602.067-.57-.219-.97-.543-1.203-.973a2.345 2.345 0 01-.241-1.372c-.541.077-1.084.38-1.628.91a4.902 4.902 0 00-1.216 1.835c-.238.619-.327 1.296-.267 2.029.06.733.336 1.493.83 2.279.469.777 1.236 1.554 2.301 2.333 1.04.768 2.44 1.49 4.199 2.165 2.18.837 4.008 1.254 5.486 1.253 1.478-.001 2.654-.288 3.528-.862a5.059 5.059 0 001.844-2.361c.37-.966.461-2.054.272-3.263-.19-1.21-.866-2.407-2.031-3.593l.53-.606c.698.552 1.346 1.27 1.945 2.153.574.874.945 1.869 1.114 2.985.168 1.116-.004 2.342-.518 3.68-.59 1.535-1.518 2.77-2.786 3.704-1.267.935-2.775 1.493-4.521 1.675-1.762.148-3.658-.168-5.689-.947-2.03-.78-3.676-1.823-4.936-3.131-1.275-1.342-2.095-2.836-2.457-4.481-.388-1.655-.259-3.324.387-5.008zm9.458-20.856a9.55 9.55 0 011.418-2.044 7.194 7.194 0 011.837-1.468c.634-.358 1.26-.557 1.877-.595a3.062 3.062 0 011.704.345c.636.329 1.038.762 1.209 1.299.146.524.08 1.057-.202 1.599-.268.518-.66.898-1.173 1.14-.502.218-1.035.18-1.6-.113-.542-.281-.904-.648-1.088-1.101a2.343 2.343 0 01-.086-1.39c-.546.016-1.12.257-1.72.723A4.898 4.898 0 0035 110.896c-.305.588-.47 1.251-.492 1.986-.023.735.168 1.521.57 2.358.38.824 1.056 1.682 2.028 2.574.948.88 2.258 1.754 3.93 2.62 2.073 1.075 3.844 1.694 5.313 1.858 1.469.163 2.67.009 3.602-.464a5.06 5.06 0 002.096-2.141c.476-.918.687-1.989.634-3.212-.053-1.223-.593-2.489-1.618-3.797l.596-.543c.631.626 1.195 1.412 1.691 2.356.473.933.731 1.963.774 3.091.043 1.127-.265 2.327-.924 3.599-.757 1.46-1.818 2.584-3.182 3.371-1.364.787-2.924 1.174-4.68 1.16-1.767-.05-3.616-.575-5.548-1.576-1.931-1.001-3.45-2.222-4.556-3.662-1.118-1.475-1.765-3.051-1.942-4.727-.201-1.687.114-3.332.944-4.934zm19.659-30.087l.686.476c-.62.894-.903 1.65-.849 2.27.07.597.563 1.213 1.478 1.849l10.72 7.444c.916.636 1.665.882 2.25.738.599-.165 1.209-.694 1.829-1.588l.686.477c-.279.355-.694.907-1.245 1.654a47.48 47.48 0 00-1.61 2.177c-.498.72-.968 1.443-1.409 2.17a67.06 67.06 0 00-1.001 1.582l-.687-.477c.545-.784.767-1.453.667-2.007-.1-.554-.607-1.149-1.522-1.784l-10.721-7.445c-.915-.635-1.65-.903-2.204-.803-.553.1-1.103.542-1.647 1.326l-.687-.476 1.165-1.468a82.758 82.758 0 001.508-2.102c.5-.72 1.003-1.468 1.51-2.246l1.083-1.767zm-7.626 10.982l.686.477c-.545.784-.767 1.453-.667 2.007.1.554.607 1.149 1.522 1.784l10.721 7.445c.916.635 1.65.903 2.204.803.554-.1 1.103-.542 1.648-1.326l.686.476a68.41 68.41 0 00-1.155 1.524 39.442 39.442 0 00-1.518 2.046 47.39 47.39 0 00-1.478 2.268c-.508.778-.88 1.36-1.115 1.745l-.686-.476c.62-.894.896-1.639.826-2.237-.054-.619-.54-1.246-1.454-1.882l-10.721-7.444c-.916-.636-1.673-.87-2.272-.706-.584.144-1.186.662-1.807 1.556l-.686-.477 1.278-1.632a95.066 95.066 0 001.576-2.2c.5-.719.973-1.423 1.42-2.114l.992-1.637zm6.373-4.295l.723-.273 6.179 17.613-.756.251-6.146-17.59zm20.533-28.347l.612.57c-.74.796-1.127 1.504-1.161 2.125-.016.601.384 1.281 1.2 2.04l9.559 8.888c.816.759 1.523 1.109 2.121 1.05.617-.08 1.296-.517 2.036-1.314l.612.57c-.326.311-.815.799-1.467 1.46a47.494 47.494 0 00-1.9 1.928 41.473 41.473 0 00-1.704 1.948c-.54.62-.946 1.095-1.215 1.424l-.612-.569c.65-.7.965-1.33.945-1.893-.02-.562-.439-1.223-1.255-1.981l-9.558-8.888c-.816-.759-1.506-1.128-2.068-1.108-.562.02-1.169.38-1.82 1.08l-.611-.569 1.36-1.288a83.157 83.157 0 001.791-1.867 95.13 95.13 0 001.814-2.01l1.322-1.596zm-9.104 9.792l.612.569c-.65.7-.965 1.33-.945 1.893.02.562.439 1.223 1.255 1.981l9.558 8.888c.816.759 1.505 1.128 2.068 1.108.562-.02 1.168-.38 1.819-1.08l.612.569c-.309.293-.762.74-1.36 1.344a39.579 39.579 0 00-1.792 1.811c-.596.641-1.19 1.32-1.784 2.036a75.436 75.436 0 00-1.35 1.57l-.613-.57c.74-.796 1.119-1.495 1.135-2.096.033-.62-.358-1.31-1.174-2.069l-9.558-8.888c-.816-.759-1.532-1.099-2.149-1.02-.599.06-1.268.487-2.009 1.284l-.612-.57c.327-.311.826-.79 1.497-1.433a94.986 94.986 0 001.871-1.955 79.155 79.155 0 001.705-1.892l1.214-1.48zm6.917-3.349l.754-.168 3.623 18.311-.784.141-3.593-18.284zm17.45-34.326a28.031 28.031 0 00.11 10.72c.731 3.545 2.343 6.953 4.834 10.224 2.49 3.272 5.356 5.742 8.594 7.41a28.183 28.183 0 0010.28 2.926l.13-.749c-3.348-.718-6.303-2.036-8.863-3.954-2.577-1.94-5.071-4.492-7.482-7.658-2.41-3.166-4.2-6.238-5.368-9.217-1.183-3-1.676-6.209-1.478-9.627l-.757-.075zm30.856-6.073l.433.716c-.931.563-1.497 1.139-1.699 1.727-.18.574.019 1.337.596 2.29l6.763 11.164c.577.953 1.161 1.483 1.753 1.59.615.093 1.387-.143 2.318-.706l.433.715c-.4.21-1.004.545-1.811 1.003-.822.436-1.607.88-2.356 1.334a41.14 41.14 0 00-2.171 1.409c-.69.448-1.209.794-1.559 1.037l-.433-.715c.817-.495 1.293-1.016 1.427-1.562.134-.547-.087-1.296-.665-2.25L115.56 31.7c-.577-.953-1.139-1.497-1.686-1.631-.546-.134-1.228.046-2.045.54l-3.029 1.836c-.817.494-1.292 1.015-1.427 1.562-.134.546.088 1.296.665 2.249L114.8 47.42c.578.953 1.139 1.496 1.686 1.63.547.135 1.228-.045 2.045-.54l.433.715c-.377.197-.935.504-1.675.921a39.23 39.23 0 00-2.219 1.251 48.21 48.21 0 00-2.274 1.47 76.13 76.13 0 00-1.728 1.14l-.433-.714c.93-.564 1.485-1.133 1.665-1.706.202-.588.014-1.359-.563-2.312l-6.762-11.163c-.577-.954-1.173-1.476-1.788-1.57-.592-.106-1.353.122-2.283.686l-.433-.715 1.831-.97a95.136 95.136 0 002.336-1.368 63.416 63.416 0 002.851-1.82 58.358 58.358 0 012.58-1.656 45.473 45.473 0 012.458-1.396 52.762 52.762 0 002.764-1.58 95.46 95.46 0 002.294-1.437l1.708-1.174zm14.263-7.37c1.556-.678 3.103-.947 4.64-.808 1.537.14 2.989.78 4.355 1.921 1.39 1.13 2.594 2.863 3.612 5.197 1.019 2.334 1.469 4.395 1.352 6.183-.104 1.753-.627 3.24-1.57 4.462-.944 1.222-2.193 2.172-3.749 2.851-1.532.669-3.079.938-4.64.809-1.538-.14-2.996-.763-4.376-1.869-1.365-1.14-2.558-2.878-3.576-5.212-1.018-2.335-1.481-4.39-1.388-6.168.118-1.788.648-3.292 1.591-4.514.967-1.232 2.217-2.183 3.749-2.851zm.318.73c-1.386.605-2.216 1.82-2.49 3.648-.249 1.817.337 4.354 1.758 7.612 1.421 3.259 2.883 5.414 4.384 6.467 1.515 1.018 2.965 1.224 4.351.62 1.386-.605 2.209-1.803 2.47-3.595.273-1.828-.3-4.37-1.722-7.629-1.421-3.258-2.894-5.408-4.42-6.45-1.501-1.053-2.945-1.277-4.331-.673zm37.161-12.52c2.849-.634 4.915-.632 6.198.006 1.304.607 2.111 1.61 2.423 3.008.299 1.346-.151 2.683-1.35 4.01-1.174 1.321-3.185 2.299-6.033 2.933l-.423-.07c-.256-.05-.384-.077-.384-.077 1.548-.371 2.688-.802 3.422-1.291.754-.521 1.201-1.137 1.342-1.848.166-.717.14-1.567-.079-2.551-.271-1.217-.764-2.154-1.481-2.81-.723-.681-2.003-.817-3.842-.408-1.036.23-1.727.602-2.075 1.114-.328.48-.374 1.252-.138 2.314l2.836 12.74c.242 1.088.613 1.78 1.114 2.076.527.29 1.347.312 2.461.064 1.45-.323 2.514-.79 3.193-1.404.705-.619 1.119-1.323 1.242-2.111a6.089 6.089 0 00-.061-2.473c-.369-1.657-1.086-2.68-2.15-3.068-1.039-.394-2.271-.433-3.695-.116l-5.904 1.314-.069-.31-.078-.35 5.554-1.236h.367c3.108-.692 5.404-.755 6.889-.188 1.479.54 2.389 1.574 2.729 3.102a5.126 5.126 0 01-.224 3.026c-.353.976-1.107 1.863-2.261 2.664-1.159.774-2.813 1.4-4.963 1.88-.802.178-1.637.336-2.503.475a46.082 46.082 0 00-5.282 1.176c-.901.227-1.568.403-2.003.527l-.181-.816c1.061-.236 1.769-.598 2.123-1.084.379-.492.448-1.282.206-2.37l-2.836-12.74c-.242-1.088-.639-1.774-1.192-2.059-.526-.29-1.32-.317-2.382-.08l-.182-.816 2.046-.333c.912-.176 1.77-.354 2.572-.532a47.32 47.32 0 002.702-.683 41.07 41.07 0 012.352-.605zm25.662-4.736c2.323-.225 4.201.313 5.633 1.614 1.455 1.272 2.328 3.4 2.616 6.383l-13.982 1.352-.112-.748 10.219-.989c-.072-1.299-.293-2.477-.662-3.534-.371-1.083-.879-1.927-1.524-2.53-.618-.607-1.376-.867-2.274-.78-1.215.117-2.239.829-3.072 2.136-.806 1.304-1.175 3.285-1.104 5.943l.134.147c-.014.401-.012.84.008 1.319.019.478.052.954.098 1.43.174 1.795.613 3.312 1.319 4.55.706 1.237 1.555 2.155 2.545 2.752 1.015.568 2.024.804 3.027.707a6.475 6.475 0 003.203-1.19c.948-.678 1.693-1.79 2.237-3.334l.822.24c-.206.9-.599 1.79-1.18 2.673-.581.882-1.348 1.636-2.3 2.261-.955.599-2.093.962-3.413 1.09-1.901.184-3.581-.094-5.038-.832-1.431-.742-2.59-1.842-3.478-3.302-.863-1.49-1.392-3.237-1.586-5.244-.225-2.324-.048-4.353.531-6.088.576-1.762 1.493-3.156 2.753-4.184 1.258-1.055 2.784-1.669 4.58-1.842zm20.082-.916l-.66 24.424c-.031 1.14.28 1.905.933 2.294.679.417 1.615.641 2.808.673l-.022.836c-.583-.043-1.391-.104-2.424-.185a128.732 128.732 0 00-3.3-.13 76.604 76.604 0 00-2.468-.026c-.797.031-1.408.055-1.833.07l.023-.836c.955.026 1.635-.128 2.043-.462.407-.334.623-.978.649-1.933l.542-20.049c.032-1.193-.157-2.074-.566-2.642-.408-.595-1.196-.908-2.363-.94l.023-.835c.846.102 1.667.164 2.463.186.769.02 1.499 0 2.191-.06a12.484 12.484 0 001.961-.385zm6.368.052c2.095.057 3.822.953 5.182 2.688 1.386 1.71 2.037 4.169 1.95 7.378a16.635 16.635 0 01-1.105 5.543c-.659 1.787-1.667 3.245-3.025 4.377-1.356 1.104-3.122 1.627-5.297 1.568-1.246-.034-2.325-.355-3.238-.963-.886-.608-1.477-1.327-1.773-2.158l.413-.546c.351.753.865 1.39 1.541 1.913.702.523 1.584.799 2.645.827 1.485.04 2.651-.392 3.498-1.298.847-.906 1.451-2.124 1.81-3.654.387-1.555.606-3.274.657-5.157.058-2.121-.068-3.863-.376-5.225-.308-1.362-.798-2.383-1.47-3.065-.671-.682-1.511-1.036-2.519-1.063-1.299-.035-2.494.476-3.584 1.535-1.089 1.032-1.809 2.632-2.16 4.798l-.462-.57c.352-2.246 1.195-3.975 2.528-5.186 1.36-1.21 2.955-1.791 4.785-1.742zm25.171 2.321a9.55 9.55 0 012.392.684c.755.33 1.415.751 1.981 1.266.544.485.934 1.013 1.169 1.586.239.546.313 1.12.222 1.724-.107.708-.387 1.229-.84 1.563-.449.307-.975.416-1.579.324a2.488 2.488 0 01-1.457-.743c-.368-.405-.504-.922-.409-1.551.091-.604.322-1.065.693-1.385a2.338 2.338 0 011.287-.53c-.191-.511-.603-.976-1.238-1.394a4.898 4.898 0 00-2.053-.794c-.656-.099-1.335-.04-2.039.175-.703.215-1.386.649-2.048 1.3-.658.625-1.252 1.54-1.784 2.748-.527 1.181-.932 2.703-1.214 4.566-.349 2.308-.365 4.184-.047 5.627.319 1.443.852 2.53 1.6 3.26a5.06 5.06 0 002.702 1.295c1.023.155 2.104.01 3.245-.435 1.14-.444 2.165-1.363 3.073-2.755l.706.39c-.389.799-.951 1.586-1.686 2.36-.73.748-1.622 1.324-2.676 1.728-1.054.404-2.289.499-3.705.285-1.627-.247-3.032-.889-4.216-1.926-1.185-1.038-2.054-2.39-2.606-4.057-.523-1.689-.621-3.609-.296-5.76.326-2.15.992-3.982 1.999-5.493 1.037-1.533 2.32-2.654 3.849-3.362 1.533-.733 3.191-.965 4.975-.696zm35.025 8.981l-.231.804c-1.045-.3-1.853-.326-2.421-.075-.544.258-.969.922-1.277 1.993l-3.604 12.545c-.308 1.07-.3 1.86.023 2.366.349.515 1.047.922 2.092 1.223l-.231.803a75.711 75.711 0 00-1.967-.648 47.381 47.381 0 00-2.578-.824 41.698 41.698 0 00-2.508-.638 67.71 67.71 0 00-1.82-.44l.231-.803c.918.264 1.623.26 2.115-.013.493-.273.893-.945 1.2-2.015l3.605-12.545c.308-1.07.325-1.852.053-2.345-.273-.492-.868-.87-1.786-1.134l.231-.803 1.764.631a87.218 87.218 0 005.087 1.462l2.022.456zM270.492 7.96l-.231.803c-.918-.264-1.623-.26-2.115.013-.492.273-.892.945-1.2 2.015l-3.605 12.545c-.307 1.071-.325 1.853-.052 2.345.272.492.867.87 1.785 1.134l-.23.803a68.183 68.183 0 00-1.814-.604 39.754 39.754 0 00-2.426-.78 47.335 47.335 0 00-2.623-.67 75.26 75.26 0 00-2.01-.495l.23-.803c1.046.3 1.84.321 2.383.063.569-.25 1.008-.911 1.315-1.982l3.605-12.545c.308-1.07.287-1.863-.062-2.377-.324-.507-1.008-.911-2.054-1.211l.231-.804c.426.15 1.078.38 1.956.687.885.281 1.748.543 2.59.785a79.26 79.26 0 002.458.665l1.869.413zm6.115 4.655l.491.597-14.693 11.511-.48-.635 14.682-11.473zm33.029 10.193l-.342.762c-.992-.446-1.788-.585-2.386-.418-.575.178-1.091.775-1.548 1.791l-5.352 11.905c-.457 1.016-.561 1.798-.313 2.346.272.559.905 1.061 1.897 1.507l-.343.762c-.4-.209-1.019-.516-1.855-.92a47.152 47.152 0 00-2.435-1.183 41.32 41.32 0 00-2.392-.988 67.375 67.375 0 00-1.738-.694l.343-.763c.871.392 1.569.488 2.095.288.526-.2 1.018-.808 1.475-1.824l5.352-11.904c.457-1.016.586-1.788.386-2.314-.2-.526-.735-.985-1.606-1.376l.342-.762 1.657.875a79.84 79.84 0 002.343 1.097c.798.36 1.626.717 2.484 1.074l1.936.74zm-12.194-5.482l-.343.762c-.871-.392-1.57-.488-2.096-.288s-1.017.808-1.474 1.824l-5.353 11.904c-.456 1.017-.585 1.788-.385 2.314.2.526.735.985 1.606 1.376l-.343.762a67.238 67.238 0 00-1.709-.855 39.637 39.637 0 00-2.29-1.117 47.553 47.553 0 00-2.501-1.037 76.289 76.289 0 00-1.92-.776l.343-.762c.992.446 1.775.58 2.35.402.598-.168 1.126-.76 1.583-1.775l5.352-11.905c.457-1.016.549-1.803.277-2.362-.248-.548-.868-1.045-1.86-1.491l.342-.762 1.839.957c.836.405 1.653.787 2.451 1.146.799.36 1.579.695 2.34 1.008l1.791.675zm5.39 5.477l.401.66-16.181 9.305-.385-.697 16.165-9.268zm30.005 4.487c.436.348 1.012.796 1.728 1.346s1.429 1.08 2.138 1.592c1.011.73 1.987 1.418 2.928 2.064.94.646 1.604 1.11 1.991 1.389 2.603 1.879 4.122 3.875 4.559 5.99.437 2.115-.02 4.108-1.371 5.98-.559.773-1.278 1.498-2.158 2.172-.863.652-1.882 1.111-3.055 1.377-1.136.26-2.416.22-3.839-.121-1.423-.34-2.973-1.116-4.651-2.327l-3.098-2.236.466-.645 2.775 2.003c1.527 1.102 2.898 1.65 4.114 1.644 1.236.01 2.336-.358 3.299-1.103.984-.729 1.872-1.642 2.664-2.739 1.475-2.044 2.169-3.866 2.081-5.467-.066-1.585-1.078-3.085-3.035-4.497-.99-.715-1.767-.998-2.332-.85-.565.149-1.251.782-2.059 1.9L324.43 50.768c-.559.774-.903 1.409-1.032 1.905-.107.511.029 1.002.409 1.473.38.47 1.007 1.053 1.879 1.749l-.466.645a35.083 35.083 0 00-2.083-1.602 129.392 129.392 0 00-2.59-1.919 99.212 99.212 0 00-2.379-1.668 23.976 23.976 0 00-1.821-1.216l.466-.645c.762.485 1.373.794 1.832.93.48.15.925.078 1.333-.216.409-.294.892-.828 1.451-1.603l11.553-16.003c.574-.796.929-1.423 1.064-1.882.15-.48.078-.925-.216-1.334-.257-.414-.743-.896-1.459-1.445l.466-.646zm7.771 35.69c.519.454.801 1.037.848 1.748.046.712-.158 1.327-.612 1.845-.455.519-1.038.801-1.75.848-.711.046-1.326-.158-1.844-.612-.519-.455-.802-1.038-.848-1.75-.047-.71.157-1.326.612-1.844.455-.519 1.038-.802 1.749-.848.712-.047 1.327.157 1.845.612zm23.715-10.814c.36.427.838.979 1.432 1.658a91.64 91.64 0 001.787 1.98c.849.912 1.671 1.777 2.468 2.595.796.817 1.357 1.4 1.682 1.75 2.186 2.351 3.335 4.56 3.447 6.63.113 2.069-.55 3.772-1.988 5.108-.582.542-1.312 1.004-2.19 1.385-.877.381-1.878.551-3.003.51-1.107-.021-2.315-.347-3.625-.976-1.29-.648-2.64-1.73-4.049-3.245l-2.601-2.797.582-.542 2.331 2.506c1.282 1.38 2.472 2.23 3.567 2.551 1.134.323 2.177.276 3.131-.14.991-.414 1.934-1.037 2.827-1.868 1.535-1.427 2.377-2.898 2.526-4.413.186-1.514-.543-3.155-2.186-4.922-.831-.894-1.539-1.323-2.122-1.288-.583.035-1.38.522-2.39 1.461l-14.454 13.44c-.7.651-1.17 1.197-1.411 1.639-.242.442-.267.882-.076 1.32.208.459.6 1.036 1.176 1.733l-.583.542a27.389 27.389 0 00-1.514-1.745 102.057 102.057 0 00-3.847-4.138 24.344 24.344 0 00-1.549-1.549l.583-.541c.653.624 1.191 1.047 1.615 1.269.442.241.891.258 1.35.049.458-.209 1.036-.638 1.736-1.288l14.454-13.44c.719-.67 1.189-1.215 1.411-1.639.241-.442.258-.891.049-1.35-.171-.456-.554-1.024-1.149-1.703l.583-.541zm-6.037 14.254a60.34 60.34 0 012.158 2.612c.521.639.934 1.16 1.238 1.566.323.424.617.839.884 1.243.997 1.5 1.466 2.803 1.407 3.908-.022 1.107-.508 2.356-1.46 3.748l-2.295 3.493c-.674.989-1.115 1.761-1.323 2.317-.17.557-.047 1.04.37 1.45.326.311.686.484 1.079.517.411.053.899.052 1.464-.003l.086.735c-.981.152-1.845.158-2.591.019-.708-.139-1.433-.606-2.173-1.403-.669-.719-1.042-1.549-1.121-2.49-.078-.942.378-2.126 1.369-3.554l2.318-3.351c.672-.952 1.202-1.824 1.587-2.618.423-.791.62-1.554.59-2.287-.012-.714-.379-1.459-1.101-2.236l-2.927-3.147.441-.52zm9.255 25.31c.414.552.57 1.181.469 1.887-.101.705-.427 1.265-.979 1.679-.551.414-1.18.57-1.886.47-.705-.101-1.265-.428-1.679-.98-.414-.551-.57-1.18-.47-1.886.101-.705.427-1.265.979-1.679.552-.414 1.181-.57 1.886-.47.706.101 1.266.428 1.68.98zm25.534-5.539c.264.492.617 1.13 1.059 1.917.442.787.888 1.556 1.339 2.306a154.84 154.84 0 001.878 3.05c.61.964 1.038 1.65 1.284 2.06 1.653 2.752 2.321 5.152 2.004 7.199-.318 2.048-1.318 3.577-3.001 4.588-.682.41-1.492.71-2.429.902-.937.191-1.952.151-3.044-.121-1.078-.25-2.193-.818-3.345-1.705-1.128-.9-2.225-2.237-3.291-4.011l-1.967-3.275.682-.41 1.762 2.934c.97 1.615 1.958 2.693 2.964 3.233 1.042.55 2.073.72 3.092.511 1.055-.201 2.106-.616 3.152-1.244 1.796-1.079 2.924-2.345 3.383-3.796.495-1.443.121-3.199-1.122-5.268-.629-1.046-1.232-1.612-1.81-1.699-.577-.086-1.458.227-2.64.937l-16.92 10.164c-.818.491-1.391.928-1.719 1.311-.327.382-.443.808-.347 1.276.109.491.374 1.137.793 1.938l-.683.41a27.142 27.142 0 00-1.12-2.02 94.488 94.488 0 00-1.38-2.374 95.375 95.375 0 00-1.53-2.47 24.024 24.024 0 00-1.195-1.835l.682-.41c.51.746.95 1.271 1.318 1.576.383.327.819.436 1.311.327.491-.109 1.146-.41 1.965-.902l16.919-10.164c.842-.505 1.415-.942 1.719-1.31.328-.383.437-.82.327-1.311-.073-.483-.33-1.117-.772-1.904l.682-.41zm-8.851 12.698c.692 1.256 1.216 2.256 1.571 3.002.378.733.674 1.329.888 1.788.228.482.43.948.608 1.399.665 1.674.855 3.045.569 4.115-.25 1.078-.984 2.2-2.203 3.365l-2.967 2.943c-.864.829-1.455 1.493-1.773 1.994-.282.51-.261 1.008.062 1.494.255.373.571.617.949.73.391.136.869.236 1.433.3l-.068.737c-.992-.054-1.838-.227-2.539-.518-.664-.281-1.276-.888-1.836-1.821-.506-.841-.7-1.731-.582-2.668s.809-2.002 2.073-3.195l2.96-2.799c.855-.793 1.553-1.537 2.094-2.233.578-.687.928-1.393 1.05-2.116.136-.701-.069-1.506-.615-2.416l-2.213-3.684.539-.416zm3.881 26.845c.29.626.312 1.273.067 1.942-.246.67-.682 1.149-1.307 1.439-.626.29-1.274.312-1.943.066-.669-.245-1.149-.681-1.439-1.307-.289-.626-.312-1.273-.066-1.942.246-.67.681-1.149 1.307-1.439.626-.29 1.274-.312 1.943-.066.669.245 1.149.681 1.438 1.307zm29.134-2.304a27.492 27.492 0 01-5.744 9.024c-2.476 2.656-5.633 4.72-9.472 6.193-3.839 1.474-7.579 2.057-11.221 1.749a27.637 27.637 0 01-10.269-2.878l.284-.706c3.226 1.149 6.432 1.581 9.618 1.296 3.212-.295 6.675-1.155 10.39-2.581 3.715-1.426 6.853-3.099 9.412-5.019 2.584-1.93 4.69-4.4 6.319-7.412l.683.334z" fill="#AC8B51"/></svg>