<svg width="224" height="224" fill="none" xmlns="http://www.w3.org/2000/svg"><path d="M112 0c26.746 46.806 65.194 86.925 112 112-46.806 26.746-86.925 65.194-112 112-25.075-46.806-65.194-85.254-112-112C46.806 86.925 86.925 46.806 112 0z" fill="#AC8B51"/><path d="M68.02 103.064v22.104c0 1.032.3 1.716.9 2.052.624.36 1.476.54 2.556.54v.756c-.528-.024-1.26-.06-2.196-.108-.936-.024-1.932-.036-2.988-.036-.744 0-1.488.012-2.232.036-.72.048-1.272.084-1.656.108v-.756c.864 0 1.476-.156 1.836-.468.36-.312.54-.9.54-1.764v-18.144c0-1.08-.192-1.872-.576-2.376-.384-.528-1.104-.792-2.16-.792v-.756c.768.072 1.512.108 2.232.108.696 0 1.356-.036 1.98-.108a11.284 11.284 0 001.764-.396zm5.76-.108c1.896 0 3.48.768 4.752 2.304 1.296 1.512 1.944 3.72 1.944 6.624 0 1.728-.288 3.408-.864 5.04-.552 1.632-1.428 2.976-2.628 4.032-1.2 1.032-2.784 1.548-4.752 1.548-1.128 0-2.112-.264-2.952-.792-.816-.528-1.368-1.164-1.656-1.908l.36-.504a4.647 4.647 0 001.44 1.692c.648.456 1.452.684 2.412.684 1.344 0 2.388-.42 3.132-1.26.744-.84 1.26-1.956 1.548-3.348.312-1.416.468-2.976.468-4.68 0-1.92-.156-3.492-.468-4.716-.312-1.224-.78-2.136-1.404-2.736-.624-.6-1.392-.9-2.304-.9-1.176 0-2.244.492-3.204 1.476-.96.96-1.572 2.424-1.836 4.392l-.432-.504c.264-2.04.984-3.624 2.16-4.752 1.2-1.128 2.628-1.692 4.284-1.692zm15.158-9.18v24.876c0 1.008.204 1.692.612 2.052.432.36 1.14.54 2.124.54V122a68.359 68.359 0 00-1.872-.072 42.297 42.297 0 00-4.968 0c-.84.024-1.464.048-1.872.072v-.756c.984 0 1.68-.18 2.088-.54.432-.36.648-1.044.648-2.052V98.096c0-1.08-.192-1.872-.576-2.376-.384-.528-1.104-.792-2.16-.792v-.756c.768.072 1.512.108 2.232.108.696 0 1.356-.036 1.98-.108a11.284 11.284 0 001.764-.396zm9.4 28.476c-1.56 0-2.7-.384-3.42-1.152-.695-.792-1.043-1.836-1.043-3.132 0-1.008.24-1.836.72-2.484a5.681 5.681 0 011.908-1.62 14.503 14.503 0 012.412-1.08c.864-.312 1.68-.612 2.448-.9.768-.288 1.392-.612 1.872-.972.504-.36.756-.816.756-1.368v-2.232c0-1.008-.156-1.776-.468-2.304-.288-.528-.684-.876-1.188-1.044a4.722 4.722 0 00-1.692-.288c-.6 0-1.248.084-1.944.252a2.862 2.862 0 00-1.62 1.044c.456.096.852.336 1.188.72.336.384.504.876.504 1.476s-.192 1.08-.576 1.44c-.384.336-.876.504-1.476.504-.696 0-1.212-.216-1.548-.648a2.62 2.62 0 01-.468-1.512c0-.624.156-1.128.468-1.512a5.802 5.802 0 011.188-1.08c.552-.384 1.26-.708 2.124-.972.888-.288 1.884-.432 2.988-.432.984 0 1.824.12 2.52.36.696.216 1.272.54 1.728.972a4.053 4.053 0 011.224 2.124c.192.816.288 1.8.288 2.952v10.008c0 .576.084 1.008.252 1.296.168.264.456.396.864.396.336 0 .624-.072.864-.216.264-.144.516-.324.756-.54l.396.612c-.504.384-.984.708-1.44.972-.456.24-1.068.36-1.836.36-1.248 0-2.076-.324-2.484-.972-.408-.648-.612-1.392-.612-2.232-.768 1.272-1.644 2.124-2.628 2.556a7.289 7.289 0 01-3.024.648zm1.585-1.44c.72 0 1.428-.204 2.124-.612.696-.432 1.344-1.14 1.944-2.124v-7.056c-.36.528-.924.948-1.692 1.26-.744.312-1.524.66-2.34 1.044a6.083 6.083 0 00-2.052 1.512c-.576.624-.864 1.524-.864 2.7 0 1.104.276 1.932.828 2.484.552.528 1.236.792 2.052.792zm28.05-17.352v.72c-.456.048-.876.252-1.26.612s-.744.996-1.08 1.908l-5.904 15.48h-.612l-6.624-15.948c-.456-.936-.912-1.5-1.368-1.692-.432-.216-.792-.324-1.08-.324v-.756c.528.072 1.08.132 1.656.18.576.024 1.2.036 1.872.036.744 0 1.524-.024 2.34-.072.84-.048 1.62-.096 2.34-.144v.756c-.6 0-1.14.048-1.62.144-.456.072-.744.324-.864.756-.12.408.024 1.116.432 2.124l4.428 10.98-.216.072 4.104-10.728c.456-1.2.504-2.04.144-2.52s-1.176-.768-2.448-.864v-.72c.624.024 1.14.048 1.548.072.432.024.924.036 1.476.036.552 0 1.044-.012 1.476-.036.456-.024.876-.048 1.26-.072zm-8.244 18.72l-1.224 3.132c-.456 1.176-.972 2.016-1.548 2.52-.384.36-.84.6-1.368.72a5.519 5.519 0 01-1.44.216 3.11 3.11 0 01-1.26-.252 2.027 2.027 0 01-.864-.756c-.216-.312-.324-.696-.324-1.152 0-.576.168-1.044.504-1.404.336-.336.804-.504 1.404-.504.504 0 .936.144 1.296.432.36.288.54.708.54 1.26 0 .408-.096.744-.288 1.008-.192.264-.42.468-.684.612a.276.276 0 00.108.036h.108c.648 0 1.224-.228 1.728-.684.504-.432.948-1.14 1.332-2.124l1.296-3.348.684.288zm18.453-5.868v-11.844l22.716 5.94-22.716 5.904z" fill="#fff"/></svg>